<?xml version="1.0" standalone="no"?>
<!DOCTYPE svg PUBLIC "-//W3C//DTD SVG 20010904//EN"
 "http://www.w3.org/TR/2001/REC-SVG-20010904/DTD/svg10.dtd">
<svg version="1.0" xmlns="http://www.w3.org/2000/svg"
 width="82.000000pt" height="82.000000pt" viewBox="0 0 82.000000 82.000000"
 preserveAspectRatio="xMidYMid meet">
<metadata>
Created by potrace 1.14, written by Peter Selinger 2001-2017
</metadata>
<g transform="translate(0.000000,82.000000) scale(0.100000,-0.100000)"
fill="#000000" stroke="none">
<path d="M73 668 c-7 -7 -22 -22 -33 -32 -23 -22 -35 -74 -26 -111 4 -14 19
-40 35 -57 24 -27 36 -32 77 -34 53 -2 92 15 113 49 10 15 10 21 1 27 -17 10
-51 0 -57 -16 -8 -21 -77 -18 -95 4 -37 42 -26 114 20 130 29 10 82 -3 82 -19
0 -5 14 -9 30 -9 36 0 37 6 6 44 -20 26 -31 30 -82 33 -39 2 -63 -1 -71 -9z"/>
<path d="M383 542 c-34 -5 -80 -68 -85 -113 -2 -22 0 -39 4 -39 5 0 8 -8 8
-18 0 -20 31 -52 68 -71 27 -14 87 -7 119 14 24 16 49 54 36 56 -4 0 -16 2
-25 4 -9 2 -27 -5 -39 -16 -64 -56 -145 22 -109 106 5 11 9 16 9 10 1 -5 6 -3
11 5 12 20 71 20 90 0 13 -13 38 -17 66 -11 11 2 -37 60 -55 66 -27 8 -72 12
-98 7z"/>
</g>
</svg>
